<?xml version="1.0" encoding="UTF-8" standalone="no"?>
<svg width="256.6mm" height="180.4mm"
 viewBox="0 0 5132 3608"
 xmlns="http://www.w3.org/2000/svg" xmlns:xlink="http://www.w3.org/1999/xlink"  version="1.2" baseProfile="tiny">
<title>Proteus Design Suite SVG export</title>
<desc>Created by Proteus Design Suite</desc>
<defs>
</defs>
<g fill="none" stroke="black" stroke-width="1" fill-rule="evenodd" stroke-linecap="square" stroke-linejoin="bevel" >

<g fill="#ffffff" fill-opacity="1" stroke="none" transform="matrix(1,0,0,1,0,0)"
font-family="MS Shell Dlg 2" font-size="58.2083" font-weight="400" font-style="normal" 
>
<path vector-effect="non-scaling-stroke" fill-rule="evenodd" d="M0,0 L5132,0 L5132,3608 L0,3608 L0,0"/>
</g>

<g fill="none" stroke="#004000" stroke-opacity="1" stroke-width="8" stroke-linecap="round" stroke-linejoin="bevel" transform="matrix(1,0,0,1,0,0)"
font-family="MS Shell Dlg 2" font-size="58.2083" font-weight="400" font-style="normal" 
>
<path vector-effect="none" fill-rule="evenodd" d="M2363,1296 L2363,1347"/>
</g>

<g fill="none" stroke="#004000" stroke-opacity="1" stroke-width="8" stroke-linecap="round" stroke-linejoin="bevel" transform="matrix(1,0,0,1,0,0)"
font-family="MS Shell Dlg 2" font-size="58.2083" font-weight="400" font-style="normal" 
>
<path vector-effect="none" fill-rule="evenodd" d="M2414,1804 L2363,1804 L2363,1347"/>
</g>

<g fill="none" stroke="#004000" stroke-opacity="1" stroke-width="8" stroke-linecap="round" stroke-linejoin="bevel" transform="matrix(1,0,0,1,0,0)"
font-family="MS Shell Dlg 2" font-size="58.2083" font-weight="400" font-style="normal" 
>
<path vector-effect="none" fill-rule="evenodd" d="M2312,1448"/>
</g>

<g fill="none" stroke="#004000" stroke-opacity="1" stroke-width="8" stroke-linecap="round" stroke-linejoin="bevel" transform="matrix(1,0,0,1,0,0)"
font-family="MS Shell Dlg 2" font-size="58.2083" font-weight="400" font-style="normal" 
>
<path vector-effect="none" fill-rule="evenodd" d="M2414,1906 L2312,1906 L2312,1448"/>
</g>

<g fill="none" stroke="#004000" stroke-opacity="1" stroke-width="8" stroke-linecap="round" stroke-linejoin="bevel" transform="matrix(1,0,0,1,0,0)"
font-family="MS Shell Dlg 2" font-size="58.2083" font-weight="400" font-style="normal" 
>
<path vector-effect="none" fill-rule="evenodd" d="M1804,1398 L1753,1398"/>
</g>

<g fill="none" stroke="#004000" stroke-opacity="1" stroke-width="8" stroke-linecap="round" stroke-linejoin="bevel" transform="matrix(1,0,0,1,0,0)"
font-family="MS Shell Dlg 2" font-size="58.2083" font-weight="400" font-style="normal" 
>
<path vector-effect="none" fill-rule="evenodd" d="M1702,1398 L1753,1398"/>
</g>

<g fill="none" stroke="#004000" stroke-opacity="1" stroke-width="8" stroke-linecap="round" stroke-linejoin="bevel" transform="matrix(1,0,0,1,0,0)"
font-family="MS Shell Dlg 2" font-size="58.2083" font-weight="400" font-style="normal" 
>
<path vector-effect="none" fill-rule="evenodd" d="M2414,2210 L1753,2210 L1753,1398"/>
</g>

<g fill="none" stroke="#004000" stroke-opacity="1" stroke-width="8" stroke-linecap="round" stroke-linejoin="bevel" transform="matrix(1,0,0,1,0,0)"
font-family="MS Shell Dlg 2" font-size="58.2083" font-weight="400" font-style="normal" 
>
<path vector-effect="none" fill-rule="evenodd" d="M1804,1499 L1702,1499"/>
</g>

<g fill="none" stroke="#004000" stroke-opacity="1" stroke-width="8" stroke-linecap="round" stroke-linejoin="bevel" transform="matrix(1,0,0,1,0,0)"
font-family="MS Shell Dlg 2" font-size="58.2083" font-weight="400" font-style="normal" 
>
<path vector-effect="none" fill-rule="evenodd" d="M1702,1499"/>
</g>

<g fill="none" stroke="#004000" stroke-opacity="1" stroke-width="8" stroke-linecap="round" stroke-linejoin="bevel" transform="matrix(1,0,0,1,0,0)"
font-family="MS Shell Dlg 2" font-size="58.2083" font-weight="400" font-style="normal" 
>
<path vector-effect="none" fill-rule="evenodd" d="M2414,2312 L1702,2312 L1702,1499"/>
</g>

<g fill="none" stroke="#004000" stroke-opacity="1" stroke-width="8" stroke-linecap="round" stroke-linejoin="bevel" transform="matrix(1,0,0,1,0,0)"
font-family="MS Shell Dlg 2" font-size="58.2083" font-weight="400" font-style="normal" 
>
<path vector-effect="none" fill-rule="evenodd" d="M2363,1347 L2922,1347"/>
</g>

<g fill="none" stroke="#004000" stroke-opacity="1" stroke-width="8" stroke-linecap="round" stroke-linejoin="bevel" transform="matrix(1,0,0,1,0,0)"
font-family="MS Shell Dlg 2" font-size="58.2083" font-weight="400" font-style="normal" 
>
<path vector-effect="none" fill-rule="evenodd" d="M2312,1448 L2922,1448"/>
</g>

<g fill="none" stroke="#004000" stroke-opacity="1" stroke-width="8" stroke-linecap="round" stroke-linejoin="bevel" transform="matrix(1,0,0,1,0,0)"
font-family="MS Shell Dlg 2" font-size="58.2083" font-weight="400" font-style="normal" 
>
<path vector-effect="none" fill-rule="evenodd" d="M3430,1398"/>
</g>

<g fill="none" stroke="#004000" stroke-opacity="1" stroke-width="8" stroke-linecap="round" stroke-linejoin="bevel" transform="matrix(1,0,0,1,0,0)"
font-family="MS Shell Dlg 2" font-size="58.2083" font-weight="400" font-style="normal" 
>
<path vector-effect="none" fill-rule="evenodd" d="M2922,1855 L2922,2007"/>
</g>

<g fill="none" stroke="#004000" stroke-opacity="1" stroke-width="8" stroke-linecap="round" stroke-linejoin="bevel" transform="matrix(1,0,0,1,0,0)"
font-family="MS Shell Dlg 2" font-size="58.2083" font-weight="400" font-style="normal" 
>
<path vector-effect="none" fill-rule="evenodd" d="M2922,2261 L2922,2109"/>
</g>

<g fill="none" stroke="#004000" stroke-opacity="1" stroke-width="8" stroke-linecap="round" stroke-linejoin="bevel" transform="matrix(1,0,0,1,0,0)"
font-family="MS Shell Dlg 2" font-size="58.2083" font-weight="400" font-style="normal" 
>
<path vector-effect="none" fill-rule="evenodd" d="M3430,2058"/>
</g>

<g fill="#c8c8aa" fill-opacity="1" stroke="#800000" stroke-opacity="1" stroke-width="8" stroke-linecap="round" stroke-linejoin="bevel" transform="matrix(1,0,0,1,0,0)"
font-family="MS Shell Dlg 2" font-size="58.2083" font-weight="400" font-style="normal" 
>
<path vector-effect="none" fill-rule="evenodd" d="M2200,1448 C2170,1387 2104,1347 2028,1347 L1895,1347 C1926,1347 1946,1393 1946,1448 C1946,1504 1926,1550 1895,1550 L2028,1550 C2104,1550 2170,1509 2200,1448 "/>
</g>

<g fill="none" stroke="#800000" stroke-opacity="1" stroke-width="8" stroke-linecap="round" stroke-linejoin="bevel" transform="matrix(1,0,0,1,0,0)"
font-family="MS Shell Dlg 2" font-size="58.2083" font-weight="400" font-style="normal" 
>
<path vector-effect="none" fill-rule="evenodd" d="M1921,1448 C1921,1403 1901,1367 1870,1357 "/>
</g>

<g fill="none" stroke="#800000" stroke-opacity="1" stroke-width="8" stroke-linecap="round" stroke-linejoin="bevel" transform="matrix(1,0,0,1,0,0)"
font-family="MS Shell Dlg 2" font-size="58.2083" font-weight="400" font-style="normal" 
>
<path vector-effect="none" fill-rule="evenodd" d="M1921,1448 C1921,1494 1901,1530 1870,1540 "/>
</g>

<g fill="none" stroke="#800000" stroke-opacity="1" stroke-width="8" stroke-linecap="round" stroke-linejoin="bevel" transform="matrix(1,0,0,1,0,0)"
font-family="MS Shell Dlg 2" font-size="58.2083" font-weight="400" font-style="normal" 
>
<polyline fill="none" vector-effect="none" points="1895,1398 1911,1398 " />
</g>

<g fill="none" stroke="#800000" stroke-opacity="1" stroke-width="8" stroke-linecap="round" stroke-linejoin="bevel" transform="matrix(1,0,0,1,0,0)"
font-family="MS Shell Dlg 2" font-size="58.2083" font-weight="400" font-style="normal" 
>
<polyline fill="none" vector-effect="none" points="1895,1499 1911,1499 " />
</g>

<g fill="none" stroke="#800000" stroke-opacity="1" stroke-width="8" stroke-linecap="round" stroke-linejoin="bevel" transform="matrix(1,0,0,1,0,0)"
font-family="MS Shell Dlg 2" font-size="58.2083" font-weight="400" font-style="normal" 
>
<polyline fill="none" vector-effect="none" points="2200,1448 2210,1448 " />
</g>

<g fill="none" stroke="#800000" stroke-opacity="1" stroke-width="8" stroke-linecap="round" stroke-linejoin="bevel" transform="matrix(1,0,0,1,0,0)"
font-family="MS Shell Dlg 2" font-size="58.2083" font-weight="400" font-style="normal" 
>
<polyline fill="none" vector-effect="none" points="1804,1398 1906,1398 " />
</g>

<g fill="none" stroke="#800000" stroke-opacity="1" stroke-width="8" stroke-linecap="round" stroke-linejoin="bevel" transform="matrix(1,0,0,1,0,0)"
font-family="MS Shell Dlg 2" font-size="58.2083" font-weight="400" font-style="normal" 
>
<polyline fill="none" vector-effect="none" points="1804,1499 1906,1499 " />
</g>

<g fill="none" stroke="#800000" stroke-opacity="1" stroke-width="8" stroke-linecap="round" stroke-linejoin="bevel" transform="matrix(1,0,0,1,0,0)"
font-family="MS Shell Dlg 2" font-size="58.2083" font-weight="400" font-style="normal" 
>
<polyline fill="none" vector-effect="none" points="2312,1448 2210,1448 " />
</g>

<g fill="none" stroke="#000000" stroke-opacity="1" stroke-width="1" stroke-linecap="square" stroke-linejoin="bevel" transform="matrix(1,0,0,1,0,0)"
font-family="Arial" font-size="62.484" font-weight="400" font-style="normal" 
>
<text fill="#000000" fill-opacity="1" stroke="none" xml:space="preserve" x="1866" y="1331" font-family="Arial" font-size="62.484" font-weight="400" font-style="normal" 
 >U16</text>
</g>

<g fill="none" stroke="#800000" stroke-opacity="1" stroke-width="8" stroke-linecap="round" stroke-linejoin="bevel" transform="matrix(1,0,0,1,0,0)"
font-family="MS Shell Dlg 2" font-size="58.2083" font-weight="400" font-style="normal" 
>
</g>

<g fill="none" stroke="#000000" stroke-opacity="1" stroke-width="1" stroke-linecap="square" stroke-linejoin="bevel" transform="matrix(1,0,0,1,0,0)"
font-family="Arial" font-size="41.656" font-weight="400" font-style="normal" 
>
<text fill="#000000" fill-opacity="1" stroke="none" xml:space="preserve" x="1866" y="1594" font-family="Arial" font-size="41.656" font-weight="400" font-style="normal" 
 >XOR</text>
</g>

<g fill="none" stroke="#800000" stroke-opacity="1" stroke-width="8" stroke-linecap="round" stroke-linejoin="bevel" transform="matrix(1,0,0,1,0,0)"
font-family="MS Shell Dlg 2" font-size="58.2083" font-weight="400" font-style="normal" 
>
</g>

<g fill="none" stroke="#004000" stroke-opacity="1" stroke-width="8" stroke-linecap="round" stroke-linejoin="bevel" transform="matrix(1,0,0,1,0,0)"
font-family="MS Shell Dlg 2" font-size="58.2083" font-weight="400" font-style="normal" 
>
<path vector-effect="none" fill-rule="evenodd" d="M2383,1194 L2342,1194 L2363,1245 L2383,1194"/>
</g>

<g fill="none" stroke="#004000" stroke-opacity="1" stroke-width="8" stroke-linecap="round" stroke-linejoin="bevel" transform="matrix(1,0,0,1,0,0)"
font-family="MS Shell Dlg 2" font-size="58.2083" font-weight="400" font-style="normal" 
>
<polyline fill="none" vector-effect="none" points="2363,1245 2363,1296 " />
</g>

<g fill="none" stroke="#000000" stroke-opacity="1" stroke-width="1" stroke-linecap="square" stroke-linejoin="bevel" transform="matrix(0,-1,1,0,1218,3556)"
font-family="Arial" font-size="62.484" font-weight="400" font-style="normal" 
>
<text fill="#000000" fill-opacity="1" stroke="none" xml:space="preserve" x="2387" y="1169" font-family="Arial" font-size="62.484" font-weight="400" font-style="normal" 
 >c_in</text>
</g>

<g fill="none" stroke="#004000" stroke-opacity="1" stroke-width="8" stroke-linecap="round" stroke-linejoin="bevel" transform="matrix(1,0,0,1,0,0)"
font-family="MS Shell Dlg 2" font-size="58.2083" font-weight="400" font-style="normal" 
>
</g>

<g fill="none" stroke="#004000" stroke-opacity="1" stroke-width="8" stroke-linecap="round" stroke-linejoin="bevel" transform="matrix(1,0,0,1,0,0)"
font-family="MS Shell Dlg 2" font-size="58.2083" font-weight="400" font-style="normal" 
>
<path vector-effect="none" fill-rule="evenodd" d="M1601,1377 L1601,1418 L1652,1398 L1601,1377"/>
</g>

<g fill="none" stroke="#004000" stroke-opacity="1" stroke-width="8" stroke-linecap="round" stroke-linejoin="bevel" transform="matrix(1,0,0,1,0,0)"
font-family="MS Shell Dlg 2" font-size="58.2083" font-weight="400" font-style="normal" 
>
<polyline fill="none" vector-effect="none" points="1652,1398 1702,1398 " />
</g>

<g fill="none" stroke="#000000" stroke-opacity="1" stroke-width="1" stroke-linecap="square" stroke-linejoin="bevel" transform="matrix(1,0,0,1,0,0)"
font-family="Arial" font-size="62.484" font-weight="400" font-style="normal" 
>
<text fill="#000000" fill-opacity="1" stroke="none" xml:space="preserve" x="1541" y="1422" font-family="Arial" font-size="62.484" font-weight="400" font-style="normal" 
 >a</text>
</g>

<g fill="none" stroke="#004000" stroke-opacity="1" stroke-width="8" stroke-linecap="round" stroke-linejoin="bevel" transform="matrix(1,0,0,1,0,0)"
font-family="MS Shell Dlg 2" font-size="58.2083" font-weight="400" font-style="normal" 
>
</g>

<g fill="none" stroke="#004000" stroke-opacity="1" stroke-width="8" stroke-linecap="round" stroke-linejoin="bevel" transform="matrix(1,0,0,1,0,0)"
font-family="MS Shell Dlg 2" font-size="58.2083" font-weight="400" font-style="normal" 
>
<path vector-effect="none" fill-rule="evenodd" d="M1601,1479 L1601,1520 L1652,1499 L1601,1479"/>
</g>

<g fill="none" stroke="#004000" stroke-opacity="1" stroke-width="8" stroke-linecap="round" stroke-linejoin="bevel" transform="matrix(1,0,0,1,0,0)"
font-family="MS Shell Dlg 2" font-size="58.2083" font-weight="400" font-style="normal" 
>
<polyline fill="none" vector-effect="none" points="1652,1499 1702,1499 " />
</g>

<g fill="none" stroke="#000000" stroke-opacity="1" stroke-width="1" stroke-linecap="square" stroke-linejoin="bevel" transform="matrix(1,0,0,1,0,0)"
font-family="Arial" font-size="62.484" font-weight="400" font-style="normal" 
>
<text fill="#000000" fill-opacity="1" stroke="none" xml:space="preserve" x="1541" y="1523" font-family="Arial" font-size="62.484" font-weight="400" font-style="normal" 
 >b</text>
</g>

<g fill="none" stroke="#004000" stroke-opacity="1" stroke-width="8" stroke-linecap="round" stroke-linejoin="bevel" transform="matrix(1,0,0,1,0,0)"
font-family="MS Shell Dlg 2" font-size="58.2083" font-weight="400" font-style="normal" 
>
</g>

<g fill="#c8c8aa" fill-opacity="1" stroke="#800000" stroke-opacity="1" stroke-width="8" stroke-linecap="round" stroke-linejoin="bevel" transform="matrix(1,0,0,1,0,0)"
font-family="MS Shell Dlg 2" font-size="58.2083" font-weight="400" font-style="normal" 
>
<path vector-effect="none" fill-rule="evenodd" d="M2820,1855 C2820,1799 2774,1753 2718,1753 L2515,1753 L2515,1956 L2718,1956 C2774,1956 2820,1911 2820,1855 "/>
</g>

<g fill="none" stroke="#800000" stroke-opacity="1" stroke-width="8" stroke-linecap="round" stroke-linejoin="bevel" transform="matrix(1,0,0,1,0,0)"
font-family="MS Shell Dlg 2" font-size="58.2083" font-weight="400" font-style="normal" 
>
<polyline fill="none" vector-effect="none" points="2414,1804 2515,1804 " />
</g>

<g fill="none" stroke="#800000" stroke-opacity="1" stroke-width="8" stroke-linecap="round" stroke-linejoin="bevel" transform="matrix(1,0,0,1,0,0)"
font-family="MS Shell Dlg 2" font-size="58.2083" font-weight="400" font-style="normal" 
>
<polyline fill="none" vector-effect="none" points="2414,1906 2515,1906 " />
</g>

<g fill="none" stroke="#800000" stroke-opacity="1" stroke-width="8" stroke-linecap="round" stroke-linejoin="bevel" transform="matrix(1,0,0,1,0,0)"
font-family="MS Shell Dlg 2" font-size="58.2083" font-weight="400" font-style="normal" 
>
<polyline fill="none" vector-effect="none" points="2922,1855 2820,1855 " />
</g>

<g fill="none" stroke="#000000" stroke-opacity="1" stroke-width="1" stroke-linecap="square" stroke-linejoin="bevel" transform="matrix(1,0,0,1,0,0)"
font-family="Arial" font-size="62.484" font-weight="400" font-style="normal" 
>
<text fill="#000000" fill-opacity="1" stroke="none" xml:space="preserve" x="2511" y="1737" font-family="Arial" font-size="62.484" font-weight="400" font-style="normal" 
 >U17</text>
</g>

<g fill="none" stroke="#800000" stroke-opacity="1" stroke-width="8" stroke-linecap="round" stroke-linejoin="bevel" transform="matrix(1,0,0,1,0,0)"
font-family="MS Shell Dlg 2" font-size="58.2083" font-weight="400" font-style="normal" 
>
</g>

<g fill="none" stroke="#000000" stroke-opacity="1" stroke-width="1" stroke-linecap="square" stroke-linejoin="bevel" transform="matrix(1,0,0,1,0,0)"
font-family="Arial" font-size="41.656" font-weight="400" font-style="normal" 
>
<text fill="#000000" fill-opacity="1" stroke="none" xml:space="preserve" x="2511" y="2000" font-family="Arial" font-size="41.656" font-weight="400" font-style="normal" 
 >AND</text>
</g>

<g fill="none" stroke="#800000" stroke-opacity="1" stroke-width="8" stroke-linecap="round" stroke-linejoin="bevel" transform="matrix(1,0,0,1,0,0)"
font-family="MS Shell Dlg 2" font-size="58.2083" font-weight="400" font-style="normal" 
>
</g>

<g fill="#c8c8aa" fill-opacity="1" stroke="#800000" stroke-opacity="1" stroke-width="8" stroke-linecap="round" stroke-linejoin="bevel" transform="matrix(1,0,0,1,0,0)"
font-family="MS Shell Dlg 2" font-size="58.2083" font-weight="400" font-style="normal" 
>
<path vector-effect="none" fill-rule="evenodd" d="M2820,2261 C2820,2205 2774,2160 2718,2160 L2515,2160 L2515,2363 L2718,2363 C2774,2363 2820,2317 2820,2261 "/>
</g>

<g fill="none" stroke="#800000" stroke-opacity="1" stroke-width="8" stroke-linecap="round" stroke-linejoin="bevel" transform="matrix(1,0,0,1,0,0)"
font-family="MS Shell Dlg 2" font-size="58.2083" font-weight="400" font-style="normal" 
>
<polyline fill="none" vector-effect="none" points="2414,2210 2515,2210 " />
</g>

<g fill="none" stroke="#800000" stroke-opacity="1" stroke-width="8" stroke-linecap="round" stroke-linejoin="bevel" transform="matrix(1,0,0,1,0,0)"
font-family="MS Shell Dlg 2" font-size="58.2083" font-weight="400" font-style="normal" 
>
<polyline fill="none" vector-effect="none" points="2414,2312 2515,2312 " />
</g>

<g fill="none" stroke="#800000" stroke-opacity="1" stroke-width="8" stroke-linecap="round" stroke-linejoin="bevel" transform="matrix(1,0,0,1,0,0)"
font-family="MS Shell Dlg 2" font-size="58.2083" font-weight="400" font-style="normal" 
>
<polyline fill="none" vector-effect="none" points="2922,2261 2820,2261 " />
</g>

<g fill="none" stroke="#000000" stroke-opacity="1" stroke-width="1" stroke-linecap="square" stroke-linejoin="bevel" transform="matrix(1,0,0,1,0,0)"
font-family="Arial" font-size="62.484" font-weight="400" font-style="normal" 
>
<text fill="#000000" fill-opacity="1" stroke="none" xml:space="preserve" x="2511" y="2144" font-family="Arial" font-size="62.484" font-weight="400" font-style="normal" 
 >U18</text>
</g>

<g fill="none" stroke="#800000" stroke-opacity="1" stroke-width="8" stroke-linecap="round" stroke-linejoin="bevel" transform="matrix(1,0,0,1,0,0)"
font-family="MS Shell Dlg 2" font-size="58.2083" font-weight="400" font-style="normal" 
>
</g>

<g fill="none" stroke="#000000" stroke-opacity="1" stroke-width="1" stroke-linecap="square" stroke-linejoin="bevel" transform="matrix(1,0,0,1,0,0)"
font-family="Arial" font-size="41.656" font-weight="400" font-style="normal" 
>
<text fill="#000000" fill-opacity="1" stroke="none" xml:space="preserve" x="2511" y="2407" font-family="Arial" font-size="41.656" font-weight="400" font-style="normal" 
 >AND</text>
</g>

<g fill="none" stroke="#800000" stroke-opacity="1" stroke-width="8" stroke-linecap="round" stroke-linejoin="bevel" transform="matrix(1,0,0,1,0,0)"
font-family="MS Shell Dlg 2" font-size="58.2083" font-weight="400" font-style="normal" 
>
</g>

<g fill="#004000" fill-opacity="1" stroke="#004000" stroke-opacity="1" stroke-width="8" stroke-linecap="round" stroke-linejoin="bevel" transform="matrix(1,0,0,1,0,0)"
font-family="MS Shell Dlg 2" font-size="58.2083" font-weight="400" font-style="normal" 
>
<path vector-effect="none" fill-rule="evenodd" d="M2373,1347 C2373,1352.52 2368.52,1357 2363,1357 C2357.48,1357 2353,1352.52 2353,1347 C2353,1341.48 2357.48,1337 2363,1337 C2368.52,1337 2373,1341.48 2373,1347 "/>
</g>

<g fill="#004000" fill-opacity="1" stroke="#004000" stroke-opacity="1" stroke-width="8" stroke-linecap="round" stroke-linejoin="bevel" transform="matrix(1,0,0,1,0,0)"
font-family="MS Shell Dlg 2" font-size="58.2083" font-weight="400" font-style="normal" 
>
<path vector-effect="none" fill-rule="evenodd" d="M2322,1448 C2322,1453.52 2317.52,1458 2312,1458 C2306.48,1458 2302,1453.52 2302,1448 C2302,1442.48 2306.48,1438 2312,1438 C2317.52,1438 2322,1442.48 2322,1448 "/>
</g>

<g fill="#004000" fill-opacity="1" stroke="#004000" stroke-opacity="1" stroke-width="8" stroke-linecap="round" stroke-linejoin="bevel" transform="matrix(1,0,0,1,0,0)"
font-family="MS Shell Dlg 2" font-size="58.2083" font-weight="400" font-style="normal" 
>
<path vector-effect="none" fill-rule="evenodd" d="M1763,1398 C1763,1403.52 1758.52,1408 1753,1408 C1747.48,1408 1743,1403.52 1743,1398 C1743,1392.48 1747.48,1388 1753,1388 C1758.52,1388 1763,1392.48 1763,1398 "/>
</g>

<g fill="#004000" fill-opacity="1" stroke="#004000" stroke-opacity="1" stroke-width="8" stroke-linecap="round" stroke-linejoin="bevel" transform="matrix(1,0,0,1,0,0)"
font-family="MS Shell Dlg 2" font-size="58.2083" font-weight="400" font-style="normal" 
>
<path vector-effect="none" fill-rule="evenodd" d="M1712,1499 C1712,1504.52 1707.52,1509 1702,1509 C1696.48,1509 1692,1504.52 1692,1499 C1692,1493.48 1696.48,1489 1702,1489 C1707.52,1489 1712,1493.48 1712,1499 "/>
</g>

<g fill="none" stroke="#004000" stroke-opacity="1" stroke-width="8" stroke-linecap="round" stroke-linejoin="bevel" transform="matrix(1,0,0,1,0,0)"
font-family="MS Shell Dlg 2" font-size="58.2083" font-weight="400" font-style="normal" 
>
<path vector-effect="none" fill-rule="evenodd" d="M3480,1377 L3480,1418 L3531,1398 L3480,1377"/>
</g>

<g fill="none" stroke="#004000" stroke-opacity="1" stroke-width="8" stroke-linecap="round" stroke-linejoin="bevel" transform="matrix(1,0,0,1,0,0)"
font-family="MS Shell Dlg 2" font-size="58.2083" font-weight="400" font-style="normal" 
>
<polyline fill="none" vector-effect="none" points="3480,1398 3430,1398 " />
</g>

<g fill="none" stroke="#000000" stroke-opacity="1" stroke-width="1" stroke-linecap="square" stroke-linejoin="bevel" transform="matrix(1,0,0,1,0,0)"
font-family="Arial" font-size="62.484" font-weight="400" font-style="normal" 
>
<text fill="#000000" fill-opacity="1" stroke="none" xml:space="preserve" x="3557" y="1422" font-family="Arial" font-size="62.484" font-weight="400" font-style="normal" 
 >s</text>
</g>

<g fill="none" stroke="#004000" stroke-opacity="1" stroke-width="8" stroke-linecap="round" stroke-linejoin="bevel" transform="matrix(1,0,0,1,0,0)"
font-family="MS Shell Dlg 2" font-size="58.2083" font-weight="400" font-style="normal" 
>
</g>

<g fill="#c8c8aa" fill-opacity="1" stroke="#800000" stroke-opacity="1" stroke-width="8" stroke-linecap="round" stroke-linejoin="bevel" transform="matrix(1,0,0,1,0,0)"
font-family="MS Shell Dlg 2" font-size="58.2083" font-weight="400" font-style="normal" 
>
<path vector-effect="none" fill-rule="evenodd" d="M3318,1398 C3287,1337 3221,1296 3145,1296 L3013,1296 C3044,1296 3064,1342 3064,1398 C3064,1453 3044,1499 3013,1499 L3145,1499 C3221,1499 3287,1459 3318,1398 "/>
</g>

<g fill="none" stroke="#800000" stroke-opacity="1" stroke-width="8" stroke-linecap="round" stroke-linejoin="bevel" transform="matrix(1,0,0,1,0,0)"
font-family="MS Shell Dlg 2" font-size="58.2083" font-weight="400" font-style="normal" 
>
<path vector-effect="none" fill-rule="evenodd" d="M3038,1398 C3038,1352 3018,1316 2988,1306 "/>
</g>

<g fill="none" stroke="#800000" stroke-opacity="1" stroke-width="8" stroke-linecap="round" stroke-linejoin="bevel" transform="matrix(1,0,0,1,0,0)"
font-family="MS Shell Dlg 2" font-size="58.2083" font-weight="400" font-style="normal" 
>
<path vector-effect="none" fill-rule="evenodd" d="M3038,1398 C3038,1443 3018,1479 2988,1489 "/>
</g>

<g fill="none" stroke="#800000" stroke-opacity="1" stroke-width="8" stroke-linecap="round" stroke-linejoin="bevel" transform="matrix(1,0,0,1,0,0)"
font-family="MS Shell Dlg 2" font-size="58.2083" font-weight="400" font-style="normal" 
>
<polyline fill="none" vector-effect="none" points="3013,1347 3028,1347 " />
</g>

<g fill="none" stroke="#800000" stroke-opacity="1" stroke-width="8" stroke-linecap="round" stroke-linejoin="bevel" transform="matrix(1,0,0,1,0,0)"
font-family="MS Shell Dlg 2" font-size="58.2083" font-weight="400" font-style="normal" 
>
<polyline fill="none" vector-effect="none" points="3013,1448 3028,1448 " />
</g>

<g fill="none" stroke="#800000" stroke-opacity="1" stroke-width="8" stroke-linecap="round" stroke-linejoin="bevel" transform="matrix(1,0,0,1,0,0)"
font-family="MS Shell Dlg 2" font-size="58.2083" font-weight="400" font-style="normal" 
>
<polyline fill="none" vector-effect="none" points="3318,1398 3328,1398 " />
</g>

<g fill="none" stroke="#800000" stroke-opacity="1" stroke-width="8" stroke-linecap="round" stroke-linejoin="bevel" transform="matrix(1,0,0,1,0,0)"
font-family="MS Shell Dlg 2" font-size="58.2083" font-weight="400" font-style="normal" 
>
<polyline fill="none" vector-effect="none" points="2922,1347 3023,1347 " />
</g>

<g fill="none" stroke="#800000" stroke-opacity="1" stroke-width="8" stroke-linecap="round" stroke-linejoin="bevel" transform="matrix(1,0,0,1,0,0)"
font-family="MS Shell Dlg 2" font-size="58.2083" font-weight="400" font-style="normal" 
>
<polyline fill="none" vector-effect="none" points="2922,1448 3023,1448 " />
</g>

<g fill="none" stroke="#800000" stroke-opacity="1" stroke-width="8" stroke-linecap="round" stroke-linejoin="bevel" transform="matrix(1,0,0,1,0,0)"
font-family="MS Shell Dlg 2" font-size="58.2083" font-weight="400" font-style="normal" 
>
<polyline fill="none" vector-effect="none" points="3430,1398 3328,1398 " />
</g>

<g fill="none" stroke="#000000" stroke-opacity="1" stroke-width="1" stroke-linecap="square" stroke-linejoin="bevel" transform="matrix(1,0,0,1,0,0)"
font-family="Arial" font-size="62.484" font-weight="400" font-style="normal" 
>
<text fill="#000000" fill-opacity="1" stroke="none" xml:space="preserve" x="2984" y="1280" font-family="Arial" font-size="62.484" font-weight="400" font-style="normal" 
 >U19</text>
</g>

<g fill="none" stroke="#800000" stroke-opacity="1" stroke-width="8" stroke-linecap="round" stroke-linejoin="bevel" transform="matrix(1,0,0,1,0,0)"
font-family="MS Shell Dlg 2" font-size="58.2083" font-weight="400" font-style="normal" 
>
</g>

<g fill="none" stroke="#000000" stroke-opacity="1" stroke-width="1" stroke-linecap="square" stroke-linejoin="bevel" transform="matrix(1,0,0,1,0,0)"
font-family="Arial" font-size="41.656" font-weight="400" font-style="normal" 
>
<text fill="#000000" fill-opacity="1" stroke="none" xml:space="preserve" x="2984" y="1543" font-family="Arial" font-size="41.656" font-weight="400" font-style="normal" 
 >XOR</text>
</g>

<g fill="none" stroke="#800000" stroke-opacity="1" stroke-width="8" stroke-linecap="round" stroke-linejoin="bevel" transform="matrix(1,0,0,1,0,0)"
font-family="MS Shell Dlg 2" font-size="58.2083" font-weight="400" font-style="normal" 
>
</g>

<g fill="none" stroke="#004000" stroke-opacity="1" stroke-width="8" stroke-linecap="round" stroke-linejoin="bevel" transform="matrix(1,0,0,1,0,0)"
font-family="MS Shell Dlg 2" font-size="58.2083" font-weight="400" font-style="normal" 
>
<path vector-effect="none" fill-rule="evenodd" d="M3480,2038 L3480,2078 L3531,2058 L3480,2038"/>
</g>

<g fill="none" stroke="#004000" stroke-opacity="1" stroke-width="8" stroke-linecap="round" stroke-linejoin="bevel" transform="matrix(1,0,0,1,0,0)"
font-family="MS Shell Dlg 2" font-size="58.2083" font-weight="400" font-style="normal" 
>
<polyline fill="none" vector-effect="none" points="3480,2058 3430,2058 " />
</g>

<g fill="none" stroke="#000000" stroke-opacity="1" stroke-width="1" stroke-linecap="square" stroke-linejoin="bevel" transform="matrix(1,0,0,1,0,0)"
font-family="Arial" font-size="62.484" font-weight="400" font-style="normal" 
>
<text fill="#000000" fill-opacity="1" stroke="none" xml:space="preserve" x="3557" y="2082" font-family="Arial" font-size="62.484" font-weight="400" font-style="normal" 
 >c_out</text>
</g>

<g fill="none" stroke="#004000" stroke-opacity="1" stroke-width="8" stroke-linecap="round" stroke-linejoin="bevel" transform="matrix(1,0,0,1,0,0)"
font-family="MS Shell Dlg 2" font-size="58.2083" font-weight="400" font-style="normal" 
>
</g>

<g fill="#c8c8aa" fill-opacity="1" stroke="#800000" stroke-opacity="1" stroke-width="8" stroke-linecap="round" stroke-linejoin="bevel" transform="matrix(1,0,0,1,0,0)"
font-family="MS Shell Dlg 2" font-size="58.2083" font-weight="400" font-style="normal" 
>
<path vector-effect="none" fill-rule="evenodd" d="M3328,2058 C3298,1997 3231,1956 3155,1956 L3023,1956 C3054,1956 3074,2002 3074,2058 C3074,2114 3054,2160 3023,2160 L3155,2160 C3231,2160 3298,2119 3328,2058 "/>
</g>

<g fill="none" stroke="#800000" stroke-opacity="1" stroke-width="8" stroke-linecap="round" stroke-linejoin="bevel" transform="matrix(1,0,0,1,0,0)"
font-family="MS Shell Dlg 2" font-size="58.2083" font-weight="400" font-style="normal" 
>
<polyline fill="none" vector-effect="none" points="3023,2007 3069,2007 " />
</g>

<g fill="none" stroke="#800000" stroke-opacity="1" stroke-width="8" stroke-linecap="round" stroke-linejoin="bevel" transform="matrix(1,0,0,1,0,0)"
font-family="MS Shell Dlg 2" font-size="58.2083" font-weight="400" font-style="normal" 
>
<polyline fill="none" vector-effect="none" points="3023,2109 3069,2109 " />
</g>

<g fill="none" stroke="#800000" stroke-opacity="1" stroke-width="8" stroke-linecap="round" stroke-linejoin="bevel" transform="matrix(1,0,0,1,0,0)"
font-family="MS Shell Dlg 2" font-size="58.2083" font-weight="400" font-style="normal" 
>
<polyline fill="none" vector-effect="none" points="2922,2007 3023,2007 " />
</g>

<g fill="none" stroke="#800000" stroke-opacity="1" stroke-width="8" stroke-linecap="round" stroke-linejoin="bevel" transform="matrix(1,0,0,1,0,0)"
font-family="MS Shell Dlg 2" font-size="58.2083" font-weight="400" font-style="normal" 
>
<polyline fill="none" vector-effect="none" points="2922,2109 3023,2109 " />
</g>

<g fill="none" stroke="#800000" stroke-opacity="1" stroke-width="8" stroke-linecap="round" stroke-linejoin="bevel" transform="matrix(1,0,0,1,0,0)"
font-family="MS Shell Dlg 2" font-size="58.2083" font-weight="400" font-style="normal" 
>
<polyline fill="none" vector-effect="none" points="3430,2058 3328,2058 " />
</g>

<g fill="none" stroke="#000000" stroke-opacity="1" stroke-width="1" stroke-linecap="square" stroke-linejoin="bevel" transform="matrix(1,0,0,1,0,0)"
font-family="Arial" font-size="62.484" font-weight="400" font-style="normal" 
>
<text fill="#000000" fill-opacity="1" stroke="none" xml:space="preserve" x="3019" y="1940" font-family="Arial" font-size="62.484" font-weight="400" font-style="normal" 
 >U20</text>
</g>

<g fill="none" stroke="#800000" stroke-opacity="1" stroke-width="8" stroke-linecap="round" stroke-linejoin="bevel" transform="matrix(1,0,0,1,0,0)"
font-family="MS Shell Dlg 2" font-size="58.2083" font-weight="400" font-style="normal" 
>
</g>

<g fill="none" stroke="#000000" stroke-opacity="1" stroke-width="1" stroke-linecap="square" stroke-linejoin="bevel" transform="matrix(1,0,0,1,0,0)"
font-family="Arial" font-size="41.656" font-weight="400" font-style="normal" 
>
<text fill="#000000" fill-opacity="1" stroke="none" xml:space="preserve" x="3019" y="2204" font-family="Arial" font-size="41.656" font-weight="400" font-style="normal" 
 >OR</text>
</g>

<g fill="none" stroke="#800000" stroke-opacity="1" stroke-width="8" stroke-linecap="round" stroke-linejoin="bevel" transform="matrix(1,0,0,1,0,0)"
font-family="MS Shell Dlg 2" font-size="58.2083" font-weight="400" font-style="normal" 
>
</g>
</g>
</svg>
